<svg xmlns="http://www.w3.org/2000/svg" viewBox="0 0 512 512"><rect width="512" height="512" rx="115" fill="#027AFA"/><g transform="translate(105.86,102.40) scale(2.3098)" fill="#ffffff"><path d="M0.745009 41.6226C1.76156 40.7529 5.73402 38.6032 6.98234 37.9268C17.4589 32.2502 29.2259 28.8067 41.231 29.6309C49.5678 30.2032 57.4566 32.6015 64.7156 36.7005C68.3633 38.7604 71.386 40.6786 75.185 42.584C88.5045 49.2645 101.534 47.9824 114.736 41.6064C118.373 39.833 121.864 37.7773 125.174 35.4583C126.557 34.4949 128.671 32.7688 129.97 31.992C129.825 36.9433 130.006 41.9622 129.963 46.9186C129.955 47.8131 129.959 48.7456 129.986 49.6388C126.477 51.909 123.434 53.7848 119.632 55.6282C107.93 61.3024 94.6998 63.5029 81.8744 60.8065C76.1847 59.5814 70.7191 57.493 65.6689 54.6149C60.1836 51.516 55.6943 48.3302 49.5806 46.3332C33.2445 40.9971 16.3384 47.9337 3.17906 57.5837C2.49674 58.084 1.58255 58.8645 0.88417 59.2809C0.808282 59.382 0.205959 59.8277 0.0654609 59.9357C0.260915 54.0465 -0.0698768 48.0459 0.0953752 42.1499C0.100728 41.958 0.581669 41.7235 0.745009 41.6226Z"/><path d="M34.9791 59.2334C44.7053 58.3794 56.6964 61.5158 65.0095 66.4404C72.0595 70.6167 78.3694 74.6828 86.674 76.0328C100.956 78.3537 114.942 72.4284 126.241 64.1233C127.495 63.199 128.711 62.2366 129.985 61.3433C129.847 62.7895 129.94 65.7517 129.943 67.3306L129.963 78.9873C118.318 86.7243 109.211 90.6925 95.0408 91.4658C83.4952 91.6872 73.7005 89.1573 63.8151 83.2311C57.5595 79.3958 51.8562 75.9045 44.4738 74.5792C29.833 71.9496 15.3757 78.2986 3.76599 86.73C2.51126 87.6411 1.33911 88.6196 0.0563753 89.4917C0.261005 83.8125 0.119743 77.2611 0.0856217 71.5373C1.49652 70.8153 3.85048 69.1812 5.48312 68.2768C15.164 62.9158 23.8841 59.9841 34.9791 59.2334Z"/><path d="M0.856653 12.2009C1.34008 11.6837 4.98585 9.55715 5.83371 9.07055C15.4168 3.57022 25.0387 0.440192 36.1499 0.0270288C45.879 -0.278972 55.5122 2.01799 64.0429 6.67783C68.0131 8.83713 71.2665 11.0468 75.4534 13.0864C90.7553 20.5396 105.487 17.6127 119.797 9.2901C122.12 7.90991 124.366 6.40669 126.526 4.78701C127.664 3.94006 128.86 2.95432 130 2.15365C129.872 3.60281 129.908 5.3041 129.92 6.78271C129.954 11.1668 129.849 15.6367 129.986 20.0127C116.739 29.3138 100.075 34.2939 83.8891 31.5392C76.9445 30.2893 70.2802 27.8169 64.21 24.2381C61.2599 22.5262 58.5082 20.6815 55.4763 19.0882C38.5678 10.2026 20.0171 16.2707 5.24238 26.6253C3.55402 27.8202 1.88783 29.0458 0.244389 30.3011L0.171656 30.3466C-0.061742 30.0276 0.216768 14.7501 0 12.7296C0.225656 12.5605 0.604331 12.351 0.856653 12.2009Z"/><path d="M104.781 100.493C104.904 100.539 114.243 109.979 115.189 110.923C112.443 113.496 109.616 116.127 106.649 118.416C96.9764 125.875 85.3944 131.161 73.1559 132.539C54.5241 134.636 37.5576 129.536 22.8896 118.154C20.1117 116.019 17.2924 113.342 14.7983 110.872C15.8155 109.982 17.2523 108.478 18.2469 107.496C20.586 105.196 22.8994 102.873 25.1868 100.522C42.7132 118.817 69.7865 123.542 91.8668 110.815C96.7776 107.984 100.891 104.596 104.781 100.493Z"/></g></svg>