<svg xmlns="http://www.w3.org/2000/svg" width="143" height="40" viewBox="0 0 142.88 40" fill="none"><g transform="scale(0.300752)" fill="#D97757"><path d="M0.745009 41.6226C1.76156 40.7529 5.73402 38.6032 6.98234 37.9268C17.4589 32.2502 29.2259 28.8067 41.231 29.6309C49.5678 30.2032 57.4566 32.6015 64.7156 36.7005C68.3633 38.7604 71.386 40.6786 75.185 42.584C88.5045 49.2645 101.534 47.9824 114.736 41.6064C118.373 39.833 121.864 37.7773 125.174 35.4583C126.557 34.4949 128.671 32.7688 129.97 31.992C129.825 36.9433 130.006 41.9622 129.963 46.9186C129.955 47.8131 129.959 48.7456 129.986 49.6388C126.477 51.909 123.434 53.7848 119.632 55.6282C107.93 61.3024 94.6998 63.5029 81.8744 60.8065C76.1847 59.5814 70.7191 57.493 65.6689 54.6149C60.1836 51.516 55.6943 48.3302 49.5806 46.3332C33.2445 40.9971 16.3384 47.9337 3.17906 57.5837C2.49674 58.084 1.58255 58.8645 0.88417 59.2809C0.808282 59.382 0.205959 59.8277 0.0654609 59.9357C0.260915 54.0465 -0.0698768 48.0459 0.0953752 42.1499C0.100728 41.958 0.581669 41.7235 0.745009 41.6226Z"/><path d="M34.9791 59.2334C44.7053 58.3794 56.6964 61.5158 65.0095 66.4404C72.0595 70.6167 78.3694 74.6828 86.674 76.0328C100.956 78.3537 114.942 72.4284 126.241 64.1233C127.495 63.199 128.711 62.2366 129.985 61.3433C129.847 62.7895 129.94 65.7517 129.943 67.3306L129.963 78.9873C118.318 86.7243 109.211 90.6925 95.0408 91.4658C83.4952 91.6872 73.7005 89.1573 63.8151 83.2311C57.5595 79.3958 51.8562 75.9045 44.4738 74.5792C29.833 71.9496 15.3757 78.2986 3.76599 86.73C2.51126 87.6411 1.33911 88.6196 0.0563753 89.4917C0.261005 83.8125 0.119743 77.2611 0.0856217 71.5373C1.49652 70.8153 3.85048 69.1812 5.48312 68.2768C15.164 62.9158 23.8841 59.9841 34.9791 59.2334Z"/><path d="M0.856653 12.2009C1.34008 11.6837 4.98585 9.55715 5.83371 9.07055C15.4168 3.57022 25.0387 0.440192 36.1499 0.0270288C45.879 -0.278972 55.5122 2.01799 64.0429 6.67783C68.0131 8.83713 71.2665 11.0468 75.4534 13.0864C90.7553 20.5396 105.487 17.6127 119.797 9.2901C122.12 7.90991 124.366 6.40669 126.526 4.78701C127.664 3.94006 128.86 2.95432 130 2.15365C129.872 3.60281 129.908 5.3041 129.92 6.78271C129.954 11.1668 129.849 15.6367 129.986 20.0127C116.739 29.3138 100.075 34.2939 83.8891 31.5392C76.9445 30.2893 70.2802 27.8169 64.21 24.2381C61.2599 22.5262 58.5082 20.6815 55.4763 19.0882C38.5678 10.2026 20.0171 16.2707 5.24238 26.6253C3.55402 27.8202 1.88783 29.0458 0.244389 30.3011L0.171656 30.3466C-0.061742 30.0276 0.216768 14.7501 0 12.7296C0.225656 12.5605 0.604331 12.351 0.856653 12.2009Z"/><path d="M104.781 100.493C104.904 100.539 114.243 109.979 115.189 110.923C112.443 113.496 109.616 116.127 106.649 118.416C96.9764 125.875 85.3944 131.161 73.1559 132.539C54.5241 134.636 37.5576 129.536 22.8896 118.154C20.1117 116.019 17.2924 113.342 14.7983 110.872C15.8155 109.982 17.2523 108.478 18.2469 107.496C20.586 105.196 22.8994 102.873 25.1868 100.522C42.7132 118.817 69.7865 123.542 91.8668 110.815C96.7776 107.984 100.891 104.596 104.781 100.493Z"/></g><g transform="translate(53.098,3.000) scale(0.203593)" fill="#F4F1EA"><path fill-rule="evenodd" clip-rule="evenodd" d="M258.991 29.9206C259.895 28.8914 261.39 28.7506 262.475 29.5878C263.54 30.4102 264.705 31.354 265.382 31.8761C269.133 34.7187 272.801 37.6697 276.381 40.7261C277.568 41.74 277.758 43.5005 276.759 44.6997C274.473 47.4406 271.872 50.1267 269.941 52.9006C269.385 53.6981 269.319 54.7294 269.736 55.6072C270.149 56.4759 270.597 57.3589 271.017 58.1525C278.124 71.5632 277.353 90.3917 266.086 101.362C265.306 102.122 264.532 102.832 263.773 103.558C262.534 104.743 262.714 106.694 264.128 107.663C265.637 108.698 267.071 109.677 268.623 111.329C279.594 123.006 277.869 144.934 266.004 155.568C242.793 176.368 192.238 167.617 193.913 129.993C194.251 128.136 195.125 127.314 196.446 126.337C196.843 126.043 197.309 125.856 197.8 125.803C203.332 125.205 211.303 125.848 217.005 126.067C217.616 126.091 218.234 126.276 218.596 126.77C220.228 129.001 220.068 133.823 221.744 136.403C227.649 145.494 245.94 145.009 248.959 133.388C249.669 130.562 249.247 127.571 247.78 125.054C242.441 115.936 230.704 118.652 222.026 116.2C188.413 106.701 182.72 59.983 212.96 42.6573C224.111 36.2683 236.688 35.993 248.866 39.1058C249.764 39.3354 250.73 39.1702 251.431 38.5638C254.387 36.0073 256.455 32.8072 258.991 29.9206ZM249.573 74.8741C248.079 66.5709 240.14 61.0497 231.841 62.5402C223.531 64.0317 218.007 71.981 219.504 80.2911C221 88.6012 228.948 94.1225 237.255 92.6212C245.554 91.121 251.069 83.1774 249.573 74.8741Z"/><path fill-rule="evenodd" clip-rule="evenodd" d="M136.846 37.548C144.426 36.9772 150.225 38.2557 155.66 42.0511C157.701 43.4763 161.263 42.5539 162.887 40.6667C163.368 40.1067 164.273 39.4741 165.011 39.4349C169.059 39.2199 178.733 39.2197 182.414 39.6257C183.028 39.6933 183.578 40.0018 183.991 40.4598C184.939 41.5101 185.355 42.2032 185.384 43.9571C185.456 48.4295 185.413 52.9045 185.403 57.378L185.384 102.299C185.382 105.532 185.584 111.873 185.022 115.405C184.922 116.034 184.55 116.577 183.931 116.729C180.258 117.634 167.886 117.381 163.954 117.207C163.457 117.185 162.971 117.038 162.568 116.747C161.66 116.092 161.171 115.48 160.912 114.79C160.319 113.205 158.718 112.156 157.372 113.181C152.826 116.756 147.307 118.877 141.538 119.266C132.598 119.917 121.644 116.649 114.928 110.636C89.3123 87.6977 99.783 40.1384 136.846 37.548ZM158.47 75.2589C156.782 66.6584 148.435 61.063 139.842 62.7726C131.278 64.4763 125.708 72.7923 127.39 81.3634C129.073 89.9344 137.372 95.5264 145.944 93.8644C154.545 92.1965 160.158 83.8596 158.47 75.2589Z"/><path fill-rule="evenodd" clip-rule="evenodd" d="M318.359 37.0646C341.088 34.4721 361.634 50.7419 364.332 73.465C367.028 96.1884 350.862 116.82 328.16 119.624C305.309 122.447 284.52 106.142 281.805 83.2687C279.09 60.3955 295.484 39.6743 318.359 37.0646ZM338.846 76.0568C337.663 67.427 329.753 61.3607 321.116 62.4572C315.45 63.1764 310.607 66.883 308.434 72.1652C306.258 77.4478 307.088 83.4914 310.603 87.9934C314.118 92.4953 319.779 94.7626 325.429 93.9299C334.044 92.6601 340.029 84.6866 338.846 76.0568Z"/><path d="M44.071 0.668051C48.8219 0.429508 53.7819 0.150165 58.1095 2.01379C59.0583 2.42239 59.6197 3.37867 59.6446 4.41143C59.754 8.95197 59.7712 17.0856 59.5402 20.91C59.5083 21.4375 59.3269 21.9461 58.9839 22.3481C58.8191 22.5411 58.6419 22.7376 58.4616 22.9322C57.7918 23.6546 56.7965 23.9748 55.8181 23.8597C55.5794 23.8316 55.3405 23.8055 55.1013 23.7814C47.5858 23.04 37.5919 27.5378 40.6218 39.4784C40.8061 40.2048 46.534 40.0629 48.0096 40.0318C50.0933 39.9874 52.9281 39.9788 55.4115 40.0755C55.9557 40.0967 56.4801 40.2864 56.9073 40.6242C58.209 41.6548 58.7212 42.2231 58.8359 43.9668C59.0192 47.3847 58.9462 50.849 58.9183 54.2741C58.8943 57.2156 58.9939 59.0889 57.551 61.329C57.1444 61.9602 56.4567 62.3458 55.709 62.4141C51.8084 62.7701 46.5908 62.2436 42.5278 62.6153C41.2422 62.7329 40.2921 63.7934 40.2183 65.0823C39.995 68.9796 40.1121 73.8569 40.1127 77.4284L40.1739 101.815C40.1842 105.225 40.2365 108.653 40.17 112.062C40.0915 116.072 39.4261 116.935 35.5622 117.244C32.3786 117.272 16.4976 117.894 14.9442 116.564C14.2091 115.934 14.0077 113.863 13.9212 112.896C13.6143 109.462 13.8335 105.849 13.8381 102.398L13.886 77.9092C13.8914 74.4765 14.0015 69.2424 13.7861 65.2567C13.7105 63.8585 12.6067 62.7497 11.2067 62.7231C4.00625 62.5865 -0.465589 64.9659 0.107517 53.4416C0.282184 49.9291 -0.32831 45.995 0.268211 42.4583C0.44227 41.4262 1.32189 40.8167 2.18384 40.2911C2.61115 40.0305 3.09647 39.8769 3.59643 39.8534C5.94442 39.743 8.71332 39.7624 11.2851 39.7814C12.9613 39.7938 14.304 38.4219 14.3066 36.7456C14.3207 27.8383 15.3327 19.0287 21.3295 11.8596C27.4448 4.54911 34.8505 1.57137 44.071 0.668051Z"/><path d="M376.41 39.9983C376.607 39.9343 376.813 39.8966 377.02 39.8826C377.742 39.8338 378.544 39.8124 379.248 39.8156C384.875 39.8399 390.685 39.5697 396.314 39.8432C396.949 39.874 397.561 40.107 398.033 40.5325C398.678 41.1141 399.41 41.8708 399.442 42.3694C399.868 48.7618 399.652 57.0942 399.666 63.3769L399.642 100.227C399.637 104.653 399.591 109.209 399.601 113.62C399.632 131.294 397.394 146.002 377.901 150.988C372.415 152.177 361.579 152.723 356.724 149.666C356.315 149.408 356.127 148.79 356.011 148.346C355.363 145.881 356.705 130.959 357.924 128.923C358.436 128.07 364.905 128 367.499 127.673C367.954 127.616 368.372 127.412 368.704 127.096C370.114 125.752 371.885 123.417 372.201 121.844C373.495 115.399 373.129 107.043 373.124 100.425L373.109 60.6718C373.124 55.3444 373.013 49.9893 373.054 44.6626C373.075 41.9836 373.989 40.7847 376.41 39.9983Z"/><path d="M69.5852 1.93778C69.8145 1.85497 70.0569 1.81328 70.3003 1.80105C71.0857 1.76159 72.1636 1.72624 72.7984 1.77455C77.7865 2.15348 86.0672 0.967349 91.202 2.27849C92.1632 2.52394 92.8273 3.36028 92.9145 4.34852C93.1404 6.9103 93.0493 10.4663 93.0517 12.6446L93.0657 28.1748C93.0736 38.6185 93.6205 113.951 92.7946 115.495C92.2957 116.428 90.9434 116.817 89.9298 117.092C89.7209 117.149 89.5071 117.184 89.2908 117.194C83.9353 117.456 77.9527 117.172 72.5659 117.312C70.7658 117.359 68.8733 117.075 67.4305 115.977C67.0439 115.683 66.7968 115.252 66.7181 114.772C66.1042 111.031 66.317 99.4625 66.3143 96.0853L66.3639 58.8806L66.3391 25.59C66.3256 19.4286 66.2613 13.2584 66.3673 7.09953C66.4129 4.45944 67.1789 2.80686 69.5852 1.93778Z"/><path d="M417.651 39.7389C422.491 39.6726 429.107 39.5319 434.097 39.7882C434.836 39.8261 435.532 40.1463 436.045 40.6806C436.598 41.2578 437.028 41.7471 437.496 42.4579C437.767 42.8686 437.902 43.3507 437.919 43.8423C438.142 50.3059 437.872 58.4464 437.874 64.9141L437.898 108.055C437.884 115.349 438.655 117.347 430.793 117.26C407.226 117.261 411.093 120.318 411.064 96.8946L411.067 68.0639C411.103 62.8783 411.11 57.6924 411.088 52.5067C411.076 49.5333 410.956 46.4493 411.122 43.4908C411.317 40.0137 415.088 39.7975 417.651 39.7389Z"/><path d="M383.452 0.284586C391.973 -1.35263 400.201 4.24132 401.817 12.7682C403.434 21.295 397.82 29.5141 389.294 31.1097C380.795 32.6999 372.615 27.1093 371.004 18.6118C369.394 10.1141 374.962 1.91601 383.452 0.284586Z"/><path d="M421.631 0.397562C430.152 -1.24013 438.38 4.3719 439.967 12.9065C441.555 21.4408 435.898 29.6387 427.357 31.1788C418.887 32.7063 410.772 27.103 409.197 18.6371C407.621 10.1712 413.177 2.022 421.631 0.397562Z"/></g></svg>