<svg width="200" height="132" viewBox="0 0 200 132" fill="none" xmlns="http://www.w3.org/2000/svg">
<path fill-rule="evenodd" clip-rule="evenodd" d="M200 0H0V44H83.9675L81.4104 38.7341L86.2646 44H91.7419L90.2731 34.4661L94.8262 44H98.3786L100 33L101.621 44H105.174L109.727 34.4661L108.258 44H113.735L118.59 38.7341L116.032 44H200V0Z" fill="#ED2024"/>
<path fill-rule="evenodd" clip-rule="evenodd" d="M83.9675 44H0V88H79.0584L87.0998 76.2876L71.4212 82.5L84.6406 72.0281L67.8274 73.3432L83.5461 67.233L67.0923 63.5339L83.9137 62.3284L69.2812 53.9437L85.7106 57.75L74.1996 45.4248L88.7771 53.9046L83.9675 44ZM80.2831 88H88.0944L90.7052 79.6329L80.2831 88ZM90.9166 88H95.1162L95.1365 81.767L90.9166 88ZM98.3231 88H101.677L100 82.5L98.3231 88ZM104.884 88H109.083L104.863 81.767L104.884 88ZM111.906 88H119.717L109.295 79.6329L111.906 88ZM120.942 88H200V44H116.032L111.223 53.9046L125.8 45.4248L114.289 57.75L130.719 53.9437L116.086 62.3284L132.908 63.5339L116.454 67.233L132.173 73.3432L115.359 72.0281L128.579 82.5L112.9 76.2876L120.942 88ZM113.735 44H108.258L107.159 51.134L113.735 44ZM105.174 44H101.621L102.459 49.6843L105.174 44ZM98.3786 44H94.8262L97.5408 49.6843L98.3786 44ZM91.7419 44H86.2646L92.8409 51.134L91.7419 44Z" fill="white"/>
<path fill-rule="evenodd" clip-rule="evenodd" d="M77.5543 90.1907L79.0584 88H0V132H200V88H120.942L122.446 90.1907L119.717 88H111.906L114.318 95.732L109.083 88H104.884L104.918 98.6314L101.677 88H98.3231L95.0816 98.6314L95.1162 88H90.9166L85.6818 95.732L88.0944 88H80.2831L77.5543 90.1907Z" fill="#278E43"/>
<path d="M113.735 44L107.159 51.134L108.258 44L109.727 34.4661L105.174 44L102.459 49.6843L101.621 44L100 33L98.3786 44L97.5408 49.6843L94.8262 44L90.2731 34.4661L91.7419 44L92.8409 51.134L86.2646 44L81.4104 38.7341L83.9675 44L88.7771 53.9046L74.1996 45.4248L85.7106 57.75L69.2812 53.9437L83.9137 62.3284L67.0923 63.5339L83.5461 67.233L67.8274 73.3432L84.6406 72.0281L71.4212 82.5L87.0998 76.2876L79.0584 88L77.5543 90.1907L80.2831 88L90.7052 79.6329L88.0944 88L85.6818 95.732L90.9166 88L95.1365 81.767L95.1162 88L95.0816 98.6314L98.3231 88L100 82.5L101.677 88L104.918 98.6314L104.884 88L104.863 81.767L109.083 88L114.318 95.732L111.906 88L109.295 79.6329L119.717 88L122.446 90.1907L120.942 88L112.9 76.2876L128.579 82.5L115.359 72.0281L132.173 73.3432L116.454 67.233L132.908 63.5339L116.086 62.3284L130.719 53.9437L114.289 57.75L125.8 45.4248L111.223 53.9046L116.032 44L118.59 38.7341L113.735 44Z" fill="#FEBD11"/>
</svg>
