<svg width="35" height="32" viewBox="0 0 35 32" fill="none" xmlns="http://www.w3.org/2000/svg">
<path fill-rule="evenodd" clip-rule="evenodd" d="M17.4997 0C14.4847 0.000700933 11.6781 1.57864 10.0789 4.17708L1.32832 18.3993C-0.357808 21.1416 -0.442468 24.5986 1.09589 27.4201L1.09931 27.4236C2.64122 30.2461 5.56959 31.9993 8.7492 32H26.2503C29.4308 32 32.3614 30.247 33.9036 27.4236C35.4427 24.6016 35.358 21.1421 33.6712 18.3993L24.9206 4.17708C23.3209 1.5787 20.5152 0 17.4997 0ZM21.9519 6.06312C20.4155 3.5664 17.1741 2.8062 14.7156 4.3652C12.2571 5.92606 11.5083 9.21825 13.0441 11.7159L21.7946 25.9381C23.3313 28.4356 26.5721 29.1964 29.0309 27.636C31.4883 26.0747 32.2381 22.7825 30.7024 20.2853L21.9519 6.06312ZM3.49709 23.1117C3.49709 20.1662 5.84776 17.7784 8.74742 17.7784C11.6471 17.7784 13.9978 20.1662 13.9978 23.1117C13.9977 26.0572 11.6471 28.4451 8.74742 28.4451C5.8478 28.445 3.49716 26.0572 3.49709 23.1117Z" fill="white"/>
</svg>
